<svg width="482" height="590" viewBox="0 0 482 590" fill="none" xmlns="http://www.w3.org/2000/svg">
<path d="M380.427 488.407C380.427 484.091 383.651 480.592 387.628 480.592H389.068C393.045 480.592 396.269 484.091 396.269 488.407V550.665H380.427V488.407ZM380.427 546.237H388.228C399.461 546.237 409.102 545.873 419.462 544.081C422.853 543.494 426.109 545.94 426.629 549.623L426.859 551.252C427.339 554.654 425.297 557.891 422.171 558.476C410.979 560.57 400.402 560.955 388.228 560.955H386.428C383.113 560.955 380.427 558.039 380.427 554.442V546.237ZM456.758 475.643C456.758 472.046 459.444 469.13 462.759 469.13H465.999C469.313 469.13 472 472.046 472 475.643V583.227C472 586.824 469.313 589.74 465.999 589.74H462.759C459.444 589.74 456.758 586.824 456.758 583.227V475.643ZM411.391 513.675C411.391 510.078 414.078 507.163 417.392 507.163H436.715V521.099H417.392C414.078 521.099 411.391 518.183 411.391 514.587V513.675ZM433.234 477.727C433.234 474.13 435.921 471.214 439.235 471.214H442.116C445.43 471.214 448.117 474.13 448.117 477.727V577.887C448.117 581.484 445.43 584.399 442.116 584.399H439.235C435.921 584.399 433.234 581.484 433.234 577.887V477.727Z" fill="#6BB58D"/>
<path d="M250.937 532.691C250.937 528.879 253.785 525.788 257.298 525.788H345.151C348.664 525.788 351.512 528.879 351.512 532.691C351.512 536.504 348.664 539.594 345.151 539.594H257.298C253.785 539.594 250.937 536.504 250.937 532.691ZM293.304 507.684H309.146V531.128H293.304V507.684ZM263.059 502.213H278.901H333.809C337.289 502.213 340.11 505.275 340.11 509.051C340.11 512.828 337.289 515.889 333.809 515.889H269.06C265.746 515.889 263.059 512.973 263.059 509.377V502.213ZM263.059 480.853C263.059 477.256 265.746 474.34 269.06 474.34H333.269C336.716 474.34 339.51 477.372 339.51 481.113C339.51 484.854 336.716 487.886 333.269 487.886H278.901V502.213V510.94H267.86C265.209 510.94 263.059 508.607 263.059 505.73V480.853ZM300.865 545.586C324.868 545.586 339.39 553.531 339.39 567.728C339.39 581.925 324.868 589.87 300.865 589.87C276.861 589.87 262.219 581.925 262.219 567.728C262.219 553.531 276.861 545.586 300.865 545.586ZM300.865 558.61C285.983 558.61 278.421 561.606 278.421 567.728C278.421 573.98 285.983 576.715 300.865 576.715C315.747 576.715 323.308 573.98 323.308 567.728C323.308 561.606 315.747 558.61 300.865 558.61Z" fill="#6BB58D"/>
<path d="M201.98 477.661C201.98 472.878 205.553 469 209.961 469C214.369 469 217.942 472.878 217.942 477.661V581.339C217.942 586.122 214.369 590 209.961 590C205.553 590 201.98 586.122 201.98 581.339V477.661ZM131.41 547.8H141.251C158.402 547.8 172.546 547.206 187.573 544.899C191.242 544.336 194.673 547.103 195.12 551.095C195.535 554.802 193.213 558.227 189.811 558.784C174.116 561.354 159.241 561.867 141.251 561.867H137.41C134.096 561.867 131.41 558.951 131.41 555.354V547.8ZM131.29 486.193C131.29 482.38 134.137 479.29 137.65 479.29H181.24C182.619 479.29 183.737 480.503 183.737 482V519.406C183.737 523.003 181.05 525.918 177.736 525.918H147.612V553.01H131.41V518.755C131.41 515.158 134.096 512.242 137.41 512.242H167.415V493.096H137.65C134.137 493.096 131.29 490.005 131.29 486.193Z" fill="#6BB58D"/>
<path d="M0 543.567C0 539.718 2.87475 536.599 6.42093 536.599H94.2736C97.8198 536.599 100.695 539.718 100.695 543.567C100.695 547.415 97.8198 550.535 94.2736 550.535H6.42093C2.87475 550.535 0 547.415 0 543.567ZM42.0061 551.433C42.0061 547.91 44.0055 544.752 47.0352 543.488C48.8213 542.743 50.816 542.74 52.6088 543.465C55.7378 544.731 57.8483 547.989 57.8483 551.613V581.273C57.8483 586.021 54.3019 589.87 49.9272 589.87C45.5525 589.87 42.0061 586.021 42.0061 581.273V551.433ZM50.0472 473.168C73.8107 473.168 90.253 483.848 90.253 500.39C90.253 516.801 73.8107 527.351 50.0472 527.351C26.4038 527.351 9.96144 516.801 9.96144 500.39C9.96144 483.848 26.4038 473.168 50.0472 473.168ZM50.0472 486.974C35.5251 486.974 26.2838 491.663 26.2838 500.39C26.2838 508.986 35.5251 513.675 50.0472 513.675C64.6893 513.675 73.8106 508.986 73.8106 500.39C73.8106 491.663 64.6893 486.974 50.0472 486.974Z" fill="#6BB58D"/>
<path fill-rule="evenodd" clip-rule="evenodd" d="M439.203 294.23C407.462 372.667 330.568 428 240.751 428C122.562 428 26.7505 332.189 26.7505 214C26.7505 95.8111 122.562 0 240.751 0C330.553 0 407.435 55.314 439.187 133.73H347.751V133.737C323.348 101.258 284.503 80.25 240.751 80.25C166.882 80.25 107 140.132 107 214C107 287.868 166.882 347.75 240.751 347.75C284.518 347.75 323.375 326.728 347.776 294.23H439.203Z" fill="#F67B60"/>
<path fill-rule="evenodd" clip-rule="evenodd" d="M481.499 106.971H267.499V320.971H481.499V106.971ZM481.497 187.221H347.747V240.721H481.497V187.221Z" fill="#6ED3F2"/>
<circle cx="200.625" cy="200.605" r="26.75" fill="#333333"/>
<path d="M133.75 93.6055C133.75 106.98 107 133.73 66.875 133.73C26.75 133.73 0 121.236 0 99.0755C0 66.8555 30.56 53.4805 53.5 53.4805C101.427 53.4805 93.625 93.6055 133.75 93.6055Z" fill="#333333"/>
</svg>
