<?xml version="1.0" encoding="utf-8"?>
<!-- Generator: Adobe Illustrator 27.9.1, SVG Export Plug-In . SVG Version: 6.00 Build 0)  -->
<svg version="1.1" xmlns="http://www.w3.org/2000/svg" xmlns:xlink="http://www.w3.org/1999/xlink" x="0px" y="0px" width="150px"
	 height="110px" viewBox="0 0 150 110" style="enable-background:new 0 0 150 110;" xml:space="preserve">
<style type="text/css">
	.st0{fill:#DBDBDB;}
</style>
<g id="Layer_1">
	<g>
		<g>
			<g>
				<path class="st0" d="M36.9,108.8c-8,0-15.1-5.2-17.2-12.7c-2.5-8.8,1.8-17.6,10.6-22c3.4-1.7,6.8-2.6,10.5-3.5
					c-2.3-3.9-4.8-7.2-6.6-9.4c-1.5-1.9-3.3-3.8-5.1-5.7c-6.3,5.6-13.4,10.6-21,14.8c-0.8,0.4-1.6,0.6-2.4,0.6c-2.3,0-4.3-1.7-4.9-4
					C0.1,64.7,1,62.7,3,61.6c6.9-3.8,13.4-8.3,19.2-13.4C12.1,36.9,4.6,24.6,14,10.5C18,4.6,24.4,1.2,31.7,1.2
					c6,0,11.6,2.3,15.2,6.4c3.5,3.8,5,8.8,4.4,14.4c-1,10-7.9,18.7-15.4,26.6c3.1,3.2,5.9,6.2,8.4,9.5c2.5,3.4,4.6,6.8,6.4,10
					c3.9-1.2,6.9-2.8,9.4-4.9C64,60.1,67,56.1,69,51.6c0.2-5.5,1.1-11,2.8-16.4c0.7-2.2,2.5-3.5,4.7-3.5c2.3,0,4.9,1.7,5.1,4.8
					c0.4,5.8-0.5,11.5-2.6,17c0,8,2.1,15.7,5.8,22.4c2.6,4.5,7.2,9.8,11.8,9.8c1.5,0,2.9-0.6,4.3-1.7c3.8-3.1,5-8.4,6.2-13.4
					c0.3-1.2,0.6-2.5,0.9-3.7c1.6-5.6,6.7-16.2,14.8-16.2c2,0,4.1,0.7,6.1,2.1c3.7,2.6,5.8,7.3,7.7,11.4c0.5,1.2,1,2.3,1.5,3.3
					l10.6,20.8c0.8,1.6,0.8,3.4-0.2,4.9c-1,1.6-2.7,2.6-4.5,2.6c0,0,0,0,0,0c-1.7,0-3.2-0.9-4-2.6l-11.6-22.9
					c-0.4-0.8-0.8-1.7-1.2-2.7c-0.8-2-1.8-4.6-3-5.6c-0.6-0.5-1.2-0.8-1.7-0.8c-0.9,0-2.8,1.1-4.8,8.3c-0.2,0.6-0.3,1.3-0.5,1.9
					c-2.7,9.8-6.4,23.2-19.4,24.3c-0.5,0-1,0.1-1.5,0.1c-14.3,0-21.9-17.4-23.9-22.7c-0.7-1.9-1.3-3.9-1.9-5.9
					c-0.1,0.2-0.3,0.3-0.4,0.5c-3.8,4-8.4,7.3-13.4,9.4c-0.7,0.3-1.4,0.5-2.1,0.8c1.1,3.8,1.5,7.4,1.3,10.8
					c-0.5,8.5-6.2,18.1-15.8,19.9C39.1,108.7,38,108.8,36.9,108.8z M45.1,80.2c-2,0.4-4.1,0.8-6.1,1.4c-4.6,1.3-8.1,3.8-9.4,6.6
					c-0.9,1.9-0.8,3.9,0.1,6.1c1.2,2.8,3.8,4.4,6.9,4.4c2.4,0,4.7-1.1,6.3-2.9C46.4,91.9,47.1,86.6,45.1,80.2z M31.4,10.7
					c-0.3,0-0.5,0-0.8,0c-5.7,0.4-9.4,5.6-10.4,10.2c-1,4.4,0.2,9.1,3.5,14c1.4,2.1,3.1,4.2,5.2,6.5c1.3-1.4,2.4-2.7,3.5-3.9
					c4.6-5.5,9.1-11.4,9-17.5C41.5,14.9,37,10.7,31.4,10.7z"/>
			</g>
			<g>
				<path class="st0" d="M77.1,28c-3.2,0-4.9-2.5-4.9-5c0-1.3,0.4-2.5,1.2-3.4c0.9-1,2.2-1.6,3.7-1.6c3.2,0,4.9,2.5,4.9,5
					C82,25.5,80.3,28,77.1,28z"/>
			</g>
		</g>
	</g>
</g>
<g id="Layer_2">
</g>
</svg>
