<svg width="64" height="64" viewBox="0 0 64 64" fill="none" xmlns="http://www.w3.org/2000/svg">
<g filter="url(#filter0_d_1_10942)">
<path d="M4.875 24.5083C4.875 17.636 4.875 14.1999 6.21244 11.575C7.38889 9.26609 9.26609 7.38889 11.575 6.21244C14.1999 4.875 17.636 4.875 24.5083 4.875H39.4917C46.364 4.875 49.8001 4.875 52.425 6.21244C54.7339 7.38889 56.6111 9.26609 57.7876 11.575C59.125 14.1999 59.125 17.636 59.125 24.5083V39.4917C59.125 46.364 59.125 49.8001 57.7876 52.425C56.6111 54.7339 54.7339 56.6111 52.425 57.7876C49.8001 59.125 46.364 59.125 39.4917 59.125H24.5083C17.636 59.125 14.1999 59.125 11.575 57.7876C9.26609 56.6111 7.38889 54.7339 6.21244 52.425C4.875 49.8001 4.875 46.364 4.875 39.4917V24.5083Z" fill="white"/>
<path d="M16.5 44.6252V20.7691C16.5 20.6068 16.5678 20.5141 16.726 20.5141C19.0619 20.5141 21.3968 20.375 23.7333 20.375C27.5247 20.375 31.6299 21.6714 33.0689 25.6377C33.4079 26.6114 33.5888 27.6083 33.5888 28.6516C33.5888 30.6454 33.1367 32.2915 32.2325 33.5897C29.7068 37.2164 25.3292 37.16 21.4051 37.16V44.602C21.4358 44.8224 21.248 44.9266 21.066 44.9266H16.7713C16.5904 44.9266 16.5 44.8339 16.5 44.6252ZM21.4277 24.9886V32.7783C22.9836 32.8923 24.6118 32.9047 26.1068 32.4074C27.7572 31.9313 28.661 30.5026 28.661 28.7907C28.7069 27.332 27.912 25.9323 26.5589 25.4059C25.0819 24.7918 23.022 24.755 21.4277 24.9886Z" fill="#F67B60"/>
<path d="M47.6873 31.2393C47.0033 30.8789 46.2749 30.6152 45.5219 30.4554C44.5542 30.2277 40.7377 29.4303 40.7363 31.4259C40.7701 32.54 42.5387 33.0859 43.3201 33.4042C46.0633 34.346 49.1676 36.0294 49.1066 39.4136C49.1904 43.6266 45.1086 45.3107 41.6097 45.3111C39.7881 45.33 37.8905 45.0479 36.2235 44.266C36.0644 44.1817 35.9619 44.0016 35.9688 43.818V39.7869C35.9508 39.6253 36.1243 39.484 36.2599 39.6003C37.8933 40.5881 39.8293 41.0676 41.7188 41.0933C42.5529 41.0933 44.2061 41.0124 44.1936 39.7869C44.1936 38.6108 42.216 38.0701 41.4277 37.7713C40.285 37.3633 39.2015 36.7983 38.2069 36.0916C36.817 35.1002 35.945 33.5106 35.9688 31.7618C35.9606 27.795 39.718 26.0145 43.1018 26.0137C44.6837 26.0006 46.3824 26.1178 47.8549 26.7602C48.0667 26.8225 48.1106 27.0455 48.1097 27.2454V31.0153C48.1231 31.2493 47.8632 31.329 47.6873 31.2393Z" fill="#F67B60"/>
</g>
<defs>
<filter id="filter0_d_1_10942" x="-3" y="-3" width="70" height="70" filterUnits="userSpaceOnUse" color-interpolation-filters="sRGB">
<feFlood flood-opacity="0" result="BackgroundImageFix"/>
<feColorMatrix in="SourceAlpha" type="matrix" values="0 0 0 0 0 0 0 0 0 0 0 0 0 0 0 0 0 0 127 0" result="hardAlpha"/>
<feOffset/>
<feGaussianBlur stdDeviation="2"/>
<feComposite in2="hardAlpha" operator="out"/>
<feColorMatrix type="matrix" values="0 0 0 0 0 0 0 0 0 0 0 0 0 0 0 0 0 0 0.12 0"/>
<feBlend mode="normal" in2="BackgroundImageFix" result="effect1_dropShadow_1_10942"/>
<feBlend mode="normal" in="SourceGraphic" in2="effect1_dropShadow_1_10942" result="shape"/>
</filter>
</defs>
</svg>
