<?xml version="1.0" encoding="utf-8"?>
<!-- Generator: Adobe Illustrator 27.9.1, SVG Export Plug-In . SVG Version: 6.00 Build 0)  -->
<svg version="1.1" id="Layer_1" xmlns="http://www.w3.org/2000/svg" xmlns:xlink="http://www.w3.org/1999/xlink" x="0px" y="0px"
	 width="64px" height="64px" viewBox="0 0 64 64" style="enable-background:new 0 0 64 64;" xml:space="preserve">
<style type="text/css">
	.st0{display:none;}
	.st1{display:inline;fill:#F67B60;}
	.st2{fill:#FFFFFF;}
	.st3{fill-rule:evenodd;clip-rule:evenodd;fill:#1ABCFE;}
	.st4{fill-rule:evenodd;clip-rule:evenodd;fill:#0ACF83;}
	.st5{fill-rule:evenodd;clip-rule:evenodd;fill:#FF7262;}
	.st6{fill-rule:evenodd;clip-rule:evenodd;fill:#F24E1E;}
	.st7{fill-rule:evenodd;clip-rule:evenodd;fill:#A259FF;}
	.st8{fill:#FFFFFF;stroke:#000000;stroke-miterlimit:10;}
</style>
<g class="st0">
	<path class="st1" d="M31.2,39h-8.4L21,44.4c0,0.2-0.2,0.3-0.4,0.3h-4.3c-0.2,0-0.3-0.1-0.3-0.4l7.3-21.5c0.1-0.2,0.1-0.5,0.2-0.8
		c0.1-0.5,0.1-1,0.1-1.5c0-0.1,0.1-0.3,0.3-0.3h5.8c0.2,0,0.3,0.1,0.3,0.2l8.3,23.9c0.1,0.2,0,0.4-0.2,0.4h-4.7
		c-0.2,0-0.3-0.1-0.4-0.3L31.2,39z M24.1,34.3h5.8c-0.9-3.2-2-6.4-2.9-9.7C26,27.9,25,31.1,24.1,34.3z"/>
	<path class="st1" d="M43.2,24.3c-0.4,0-0.7,0-1.1-0.2c-0.3-0.1-0.7-0.4-0.9-0.6c-0.3-0.3-0.5-0.6-0.6-1c-0.1-0.4-0.2-0.8-0.2-1.1
		c0-0.4,0.1-0.8,0.2-1.1c0.1-0.4,0.4-0.7,0.6-0.9c0.3-0.3,0.6-0.5,0.9-0.6c0.3-0.1,0.7-0.2,1.1-0.2c0.9,0,1.6,0.3,2.1,0.8
		c0.3,0.3,0.4,0.6,0.6,1c0.1,0.4,0.2,0.7,0.2,1.1c0,0.4,0,0.8-0.2,1.1s-0.3,0.7-0.6,1c-0.3,0.3-0.6,0.5-1,0.6
		C44,24.2,43.6,24.3,43.2,24.3z M40.7,44.4V26.5c0-0.2,0.1-0.3,0.3-0.3h4.5c0.2,0,0.3,0.1,0.3,0.3v17.8c0,0.2-0.1,0.4-0.3,0.4h-4.4
		C40.8,44.8,40.7,44.6,40.7,44.4z"/>
</g>
<path class="st2" d="M4.9,24.5c0-6.9,0-10.3,1.3-12.9c1.2-2.3,3.1-4.2,5.4-5.4c2.6-1.3,6.1-1.3,12.9-1.3h15c6.9,0,10.3,0,12.9,1.3
	c2.3,1.2,4.2,3.1,5.4,5.4c1.3,2.6,1.3,6.1,1.3,12.9v15c0,6.9,0,10.3-1.3,12.9c-1.2,2.3-3.1,4.2-5.4,5.4c-2.6,1.3-6.1,1.3-12.9,1.3
	h-15c-6.9,0-10.3,0-12.9-1.3c-2.3-1.2-4.2-3.1-5.4-5.4c-1.3-2.6-1.3-6.1-1.3-12.9V24.5z"/>
<g>
	<path class="st3" d="M32,32c0-3.2,2.5-5.7,5.7-5.7c3.2,0,5.7,2.5,5.7,5.7s-2.5,5.7-5.7,5.7C34.5,37.7,32,35.2,32,32z"/>
	<path class="st4" d="M20.6,43.5c0-3.2,2.5-5.7,5.7-5.7H32v5.7c0,3.2-2.5,5.7-5.7,5.7C23.1,49.1,20.6,46.6,20.6,43.5z"/>
	<path class="st5" d="M32,14.9v11.4h5.7c3.2,0,5.7-2.5,5.7-5.7s-2.5-5.7-5.7-5.7L32,14.9L32,14.9z"/>
	<path class="st6" d="M20.6,20.6c0,3.2,2.5,5.7,5.7,5.7H32V14.9h-5.7C23.1,14.9,20.6,17.4,20.6,20.6z"/>
	<path class="st7" d="M20.6,32c0,3.2,2.5,5.7,5.7,5.7H32V26.4h-5.7C23.1,26.4,20.6,28.9,20.6,32z"/>
</g>
<line class="st8" x1="549" y1="27" x2="506" y2="68"/>
</svg>
