<?xml version="1.0" encoding="utf-8"?>
<!-- Generator: Adobe Illustrator 27.9.1, SVG Export Plug-In . SVG Version: 6.00 Build 0)  -->
<svg version="1.1" id="Layer_1" xmlns="http://www.w3.org/2000/svg" xmlns:xlink="http://www.w3.org/1999/xlink" x="0px" y="0px"
	 width="64px" height="64px" viewBox="0 0 64 64" style="enable-background:new 0 0 64 64;" xml:space="preserve">
<style type="text/css">
	.st0{display:none;}
	.st1{display:inline;fill:#F67B60;}
	.st2{fill:#FFFFFF;}
	.st3{fill:#FFFFFF;stroke:#000000;stroke-miterlimit:10;}
	.st4{fill:#2489CA;}
	.st5{fill:#1070B3;}
	.st6{fill:#0877B9;}
	.st7{fill:#3C99D4;}
</style>
<g class="st0">
	<path class="st1" d="M31.2,39h-8.4L21,44.4c0,0.2-0.2,0.3-0.4,0.3h-4.3c-0.2,0-0.3-0.1-0.3-0.4l7.3-21.5c0.1-0.2,0.1-0.5,0.2-0.8
		c0.1-0.5,0.1-1,0.1-1.5c0-0.1,0.1-0.3,0.3-0.3h5.8c0.2,0,0.3,0.1,0.3,0.2l8.3,23.9c0.1,0.2,0,0.4-0.2,0.4h-4.7
		c-0.2,0-0.3-0.1-0.4-0.3L31.2,39z M24.1,34.3h5.8c-0.9-3.2-2-6.4-2.9-9.7C26,27.9,25,31.1,24.1,34.3z"/>
	<path class="st1" d="M43.2,24.3c-0.4,0-0.7,0-1.1-0.2c-0.3-0.1-0.7-0.4-0.9-0.6c-0.3-0.3-0.5-0.6-0.6-1c-0.1-0.4-0.2-0.8-0.2-1.1
		c0-0.4,0.1-0.8,0.2-1.1c0.1-0.4,0.4-0.7,0.6-0.9c0.3-0.3,0.6-0.5,0.9-0.6c0.3-0.1,0.7-0.2,1.1-0.2c0.9,0,1.6,0.3,2.1,0.8
		c0.3,0.3,0.4,0.6,0.6,1c0.1,0.4,0.2,0.7,0.2,1.1c0,0.4,0,0.8-0.2,1.1s-0.3,0.7-0.6,1c-0.3,0.3-0.6,0.5-1,0.6
		C44,24.2,43.6,24.3,43.2,24.3z M40.7,44.4V26.5c0-0.2,0.1-0.3,0.3-0.3h4.5c0.2,0,0.3,0.1,0.3,0.3v17.8c0,0.2-0.1,0.4-0.3,0.4h-4.4
		C40.8,44.8,40.7,44.6,40.7,44.4z"/>
</g>
<path class="st2" d="M4.9,24.5c0-6.9,0-10.3,1.3-12.9c1.2-2.3,3.1-4.2,5.4-5.4c2.6-1.3,6.1-1.3,12.9-1.3h15c6.9,0,10.3,0,12.9,1.3
	c2.3,1.2,4.2,3.1,5.4,5.4c1.3,2.6,1.3,6.1,1.3,12.9v15c0,6.9,0,10.3-1.3,12.9c-1.2,2.3-3.1,4.2-5.4,5.4c-2.6,1.3-6.1,1.3-12.9,1.3
	h-15c-6.9,0-10.3,0-12.9-1.3c-2.3-1.2-4.2-3.1-5.4-5.4c-1.3-2.6-1.3-6.1-1.3-12.9V24.5z"/>
<line class="st3" x1="549" y1="27" x2="506" y2="68"/>
<g>
	<path class="st4" d="M16.1,27.2c0,0-0.8-0.6,0.2-1.3l2.2-2c0,0,0.6-0.7,1.3-0.1l20.3,15.4v7.4c0,0,0,1.2-1.5,1L16.1,27.2z"/>
	<path class="st5" d="M21.4,31.9l-5.2,4.8c0,0-0.5,0.4,0,1.1l2.4,2.2c0,0,0.6,0.6,1.4-0.1l5.5-4.2L21.4,31.9z"/>
	<path class="st6" d="M30.6,32l9.6-7.3l-0.1-7.3c0,0-0.4-1.6-1.8-0.8L25.6,28.2L30.6,32z"/>
	<path class="st7" d="M38.6,47.6c0.6,0.6,1.2,0.4,1.2,0.4l7.5-3.7c1-0.7,0.8-1.5,0.8-1.5v-22c0-1-1-1.3-1-1.3l-6.5-3.1
		c-1.4-0.9-2.3,0.2-2.3,0.2s1.2-0.9,1.8,0.8v29.1c0,0.2,0,0.4-0.1,0.6C39.8,47.3,39.4,47.6,38.6,47.6L38.6,47.6z"/>
</g>
</svg>
