<svg width="64" height="64" viewBox="0 0 64 64" fill="none" xmlns="http://www.w3.org/2000/svg">
<g filter="url(#filter0_d_1_10941)">
<path d="M4.875 24.5083C4.875 17.636 4.875 14.1999 6.21244 11.575C7.38889 9.26609 9.26609 7.38889 11.575 6.21244C14.1999 4.875 17.636 4.875 24.5083 4.875H39.4917C46.364 4.875 49.8001 4.875 52.425 6.21244C54.7339 7.38889 56.6111 9.26609 57.7876 11.575C59.125 14.1999 59.125 17.636 59.125 24.5083V39.4917C59.125 46.364 59.125 49.8001 57.7876 52.425C56.6111 54.7339 54.7339 56.6111 52.425 57.7876C49.8001 59.125 46.364 59.125 39.4917 59.125H24.5083C17.636 59.125 14.1999 59.125 11.575 57.7876C9.26609 56.6111 7.38889 54.7339 6.21244 52.425C4.875 49.8001 4.875 46.364 4.875 39.4917V24.5083Z" fill="white"/>
<path d="M31.1639 38.9678H22.7572L21.0467 44.4174C20.9992 44.6198 20.8128 44.7632 20.61 44.7533H16.3521C16.1093 44.7533 16.0243 44.6164 16.0973 44.3427L23.3758 22.843C23.4487 22.6191 23.5215 22.364 23.5942 22.0778C23.6894 21.5798 23.7382 21.0736 23.7398 20.5662C23.719 20.4162 23.8507 20.2838 23.9946 20.3048H29.7809C29.9505 20.3048 30.0475 20.3671 30.0721 20.4915L38.3333 44.38C38.4061 44.629 38.3332 44.7535 38.1149 44.7533H33.3838C33.2179 44.7721 33.0594 44.6584 33.0199 44.492L31.1639 38.9678ZM24.0673 34.2647H29.8174C28.8726 31.0365 27.8065 27.8507 26.9424 24.5973C26.0101 27.8562 24.9929 31.1019 24.0673 34.2647Z" fill="#F67B60"/>
<path d="M43.2458 24.2613C42.8747 24.2766 42.5045 24.2113 42.1596 24.0698C41.8147 23.9283 41.5028 23.7137 41.2442 23.4401C40.9865 23.1546 40.7862 22.8197 40.655 22.4546C40.5239 22.0894 40.4644 21.7013 40.4799 21.3125C40.4667 20.9276 40.5328 20.5441 40.6739 20.1872C40.815 19.8302 41.0279 19.5078 41.2988 19.2409C41.567 18.9769 41.8836 18.77 42.2303 18.6323C42.577 18.4945 42.9469 18.4286 43.3186 18.4385C44.1921 18.4385 44.8775 18.706 45.3748 19.2409C45.6258 19.519 45.821 19.8451 45.949 20.2005C46.077 20.556 46.1354 20.9339 46.1208 21.3125C46.136 21.7028 46.0746 22.0923 45.9402 22.4578C45.8058 22.8233 45.6011 23.1573 45.3384 23.4401C45.0638 23.7178 44.7361 23.9341 44.3759 24.0754C44.0158 24.2167 43.631 24.28 43.2458 24.2613ZM40.7347 44.3799V26.5381C40.7347 26.3142 40.8313 26.2022 41.0258 26.2022H45.5022C45.6961 26.2022 45.7931 26.3142 45.7933 26.5381V44.3799C45.7933 44.6289 45.6963 44.7533 45.5022 44.7532H41.0622C40.8439 44.7532 40.7347 44.6287 40.7347 44.3799Z" fill="#F67B60"/>
</g>
<defs>
<filter id="filter0_d_1_10941" x="-3" y="-3" width="70" height="70" filterUnits="userSpaceOnUse" color-interpolation-filters="sRGB">
<feFlood flood-opacity="0" result="BackgroundImageFix"/>
<feColorMatrix in="SourceAlpha" type="matrix" values="0 0 0 0 0 0 0 0 0 0 0 0 0 0 0 0 0 0 127 0" result="hardAlpha"/>
<feOffset/>
<feGaussianBlur stdDeviation="2"/>
<feComposite in2="hardAlpha" operator="out"/>
<feColorMatrix type="matrix" values="0 0 0 0 0 0 0 0 0 0 0 0 0 0 0 0 0 0 0.12 0"/>
<feBlend mode="normal" in2="BackgroundImageFix" result="effect1_dropShadow_1_10941"/>
<feBlend mode="normal" in="SourceGraphic" in2="effect1_dropShadow_1_10941" result="shape"/>
</filter>
</defs>
</svg>
