<?xml version="1.0" encoding="utf-8"?>
<!-- Generator: Adobe Illustrator 27.9.1, SVG Export Plug-In . SVG Version: 6.00 Build 0)  -->
<svg version="1.1" id="Layer_2" xmlns="http://www.w3.org/2000/svg" xmlns:xlink="http://www.w3.org/1999/xlink" x="0px" y="0px"
	 width="1200px" height="1500px" viewBox="0 0 1200 1500" style="enable-background:new 0 0 1200 1500;" xml:space="preserve">
<style type="text/css">
	.st0{fill:#FFFFFF;}
</style>
<g>
	<path class="st0" d="M524,163.6c-57.5-1.2-112.8,11.6-167.7,26.5c-8.5-11.6-17.5-22.8-26.8-33.8c-5-5.9-14.5,1.5-9.5,7.4
		c8.2,9.6,16.2,19.6,23.8,29.8c-34.3,9.5-68.5,19.5-103,27.1c-26.5,5.8-53.3,10.1-80.3,11.8c-7.7,0.5-6.1,12.4,1.6,11.9
		c64.9-4,126.8-23.4,189.2-40.6c39,54.8,67.9,117.5,71.1,185.5c3.7,78.3-29,159.8-100.8,197.5c-36.3,19.1-79.4,26-119.1,13.6
		c-7.3-2.3-11.8,8.8-4.4,11.2c76.2,23.8,160.4-15.6,201.6-81.5c46.3-74,42.8-168,10.3-246.5c-12.2-29.4-28.1-57.1-46.3-83.1
		c25.9-7,51.9-13.4,78.2-18c26.6-4.6,53.6-7.4,80.6-6.8C530.2,175.7,531.8,163.8,524,163.6z"/>
	<path class="st0" d="M732.5,613c-51.6,0.2-103.2,0.5-154.8,0.7c-0.3-100.6-0.6-201.2-0.9-301.8c-0.1-23.8-0.1-47.7-0.2-71.5h121.9
		c7.6,0,9.2-11.9,1.5-11.9H576.6c0-2.1,0-4.2,0-6.4c0-7.6-11.9-9.2-11.9-1.5c0,2.6,0,5.2,0,7.8h-77.8c-7.6,0-9.2,11.9-1.5,11.9h79.3
		c0.3,100.5,0.6,200.9,0.9,301.4c0.1,24,0.1,47.9,0.2,71.9c-20.5,0.1-41,0.2-61.6,0.3c-7.6,0-9.2,11.9-1.5,11.9
		c21-0.1,42-0.2,63.1-0.3c0,2,0,4,0,5.9c0,7.6,11.9,9.2,11.9,1.5c0-2.5,0-5,0-7.5c51.1-0.2,102.2-0.5,153.3-0.7
		C738.7,624.9,740.2,613,732.5,613z"/>
	<path class="st0" d="M946.2,316.4c-0.8,73.1-1.6,146.1-2.3,219.2c-51.4-56.9-97.1-118.9-135.9-185c-11.8-20-22.8-40.4-33.3-61.1
		c-2.7-5.3-10.5-4.6-11.5,1.6l-31.2,198.4c-3,19-6,38-9,57c-1.2,7.6,10.7,9.1,11.9,1.5l31.2-198.4c2-12.9,4.1-25.8,6.1-38.7
		c35.7,67.6,78,131.7,126.5,190.8c14.9,18.1,30.3,35.8,46.2,52.9c3.1,3.3,10.6,2.8,10.7-3c0.8-77.9,1.7-155.7,2.5-233.6
		C958.2,310.2,946.3,308.7,946.2,316.4z"/>
	<path class="st0" d="M342.4,966.5c-7.9-83.3-15.8-166.7-23.7-250c-0.7-7.7-12.6-6.1-11.9,1.6c4.3,45.8,8.7,91.6,13,137.4
		c-58,0.3-116,0.7-174,1c-7.9-48.4-15.7-96.8-23.6-145.2c-4.2-25.7-8.3-51.3-12.5-77c-1.2-7.6-13.1-6-11.9,1.6l35.9,220.6
		c-4.5,0-9,0.1-13.6,0.1c-7.7,0-6,11.9,1.6,11.9c4.6,0,9.3-0.1,13.9-0.1l6.5,39.8c4.2,25.7,8.3,51.3,12.5,77
		c1.2,7.6,13.1,6,11.9-1.6l-18.7-115.2c57.7-0.3,115.5-0.7,173.2-1c3.2,33.6,6.4,67.1,9.5,100.7
		C331.3,975.8,343.2,974.2,342.4,966.5z"/>
	<path class="st0" d="M653.9,917c-69.5,10.2-139,20.3-208.5,30.5c-17.7,2.6-35.4,5.2-53.1,7.8l-19.3-144.7
		c67.3-2.9,134.6-5.8,201.9-8.7c20-0.9,39.9-1.7,59.9-2.6c7.7-0.3,6.1-12.2-1.6-11.9c-69.9,3-139.8,6-209.6,9
		c-17.4,0.7-34.8,1.5-52.2,2.2l-3.4-25.2c-2.1-15.8-4.2-31.6-6.3-47.4c-1.5-11.6-4.2-24.2-1.3-35.7c3.2-12.7,14-15.9,26-16.2
		c15.1-0.3,30.2,0.1,45.3,0.1c36,0.1,72,0.3,108,0.4c7.6,0,9.2-11.9,1.5-11.9l-101-0.4c-16.6-0.1-33.2-0.2-49.8-0.2
		c-12.8,0-26.3,1.1-35,11.7c-7.3,8.9-8.4,21.1-7.9,32.1c0.7,15.1,3.6,30.3,5.6,45.3c2.2,16.5,4.4,33.1,6.6,49.6
		c-1.6,2.3-1.1,6,1.1,8.2c1.8,13.7,3.7,27.3,5.5,41c5,37.5,10,75.1,15.1,112.6c0.4,3.2,3.5,5.6,6.8,5.1
		c69.5-10.2,139-20.3,208.5-30.5c19.7-2.9,39.3-5.8,59-8.6C663.2,927.8,661.6,915.9,653.9,917z"/>
	<path class="st0" d="M1007.4,870.1c-73.4,11-146.8,22-220.2,32.9c-19,2.8-37.9,5.7-56.9,8.5l-24-99.4c0.8,0.6,1.8,1.1,3.1,1.2
		c73.8,6.4,148.4,2.9,221.3-10.5c7.6-1.4,6-13.3-1.6-11.9c-71.9,13.2-145.4,16.8-218.2,10.5c-3.2-0.3-5.4,1.7-6.2,4.1
		c-10.8-44.7-21.6-89.4-32.4-134.2c74.5-0.7,149-1.5,223.5-2.2l75.9-0.8c7.7-0.1,6-12-1.6-11.9c-89.9,0.9-179.8,1.8-269.7,2.7
		c-25.3,0.3-50.6,0.5-75.9,0.8c-7.7,0.1-6,12,1.6,11.9c11.3-0.1,22.7-0.2,34-0.3c19.9,82.5,39.8,165.1,59.8,247.6
		c0.8,3.1,3.3,5.7,6.8,5.1c73.4-11,146.8-22,220.2-32.9c20.7-3.1,41.5-6.2,62.2-9.3C1016.7,880.8,1015.1,868.9,1007.4,870.1z"/>
	<path class="st0" d="M649.5,1249c-65.3-39.9-130.7-79.8-196-119.7c-15.3-9.4-30.6-18.7-45.9-28.1c71.8-25.2,143.5-50.5,215.3-75.7
		c7.3-2.6,2.6-13.6-4.6-11.1c-74.4,26.2-148.8,52.3-223.2,78.5c3.7-30.7,7.4-61.3,11-92c0.9-7.7-11-9.1-11.9-1.5
		c-9.9,82.5-19.8,164.9-29.7,247.4c-0.9,7.7,11,9.1,11.9,1.5c5.7-47.2,11.3-94.5,17-141.7c64.2,39.2,128.5,78.5,192.7,117.7
		c18.7,11.5,37.5,22.9,56.2,34.4C648.8,1262.6,656.1,1253,649.5,1249z"/>
	<path class="st0" d="M902.7,1330.3c-51.2,4.5-102.8,4.5-154,0.3c0.2-0.6,0.3-1.2,0.3-1.9c0.9-89.9,1.8-179.8,2.7-269.7
		c0.2-23.5,0.5-47,0.7-70.6c20.2-0.2,40.4-0.3,60.7-0.5c7.7-0.1,6-12-1.6-11.9c-21.7,0.2-43.3,0.4-65,0.6c-0.5-0.1-1.1-0.1-1.6,0
		c-33.6,0.3-67.2,0.6-100.8,0.9c-7.7,0.1-6,12,1.6,11.9c31.6-0.3,63.2-0.5,94.8-0.8c-0.9,87.6-1.8,175.2-2.6,262.8
		c-0.3,25.3-0.5,50.6-0.8,75.9c0,0.9,0.1,1.7,0.4,2.4c-17.7-1.7-35.4-3.9-53-6.6c-20.4-3.2-40.6-7-60.8-11.5
		c-7.5-1.7-8.9,10.2-1.5,11.9c71.9,16.1,145.6,23.5,219.3,22.1c20.9-0.4,41.9-1.5,62.7-3.3C912,1341.6,910.4,1329.7,902.7,1330.3z"
		/>
	<path class="st0" d="M1101.8,1242.9c-30.7-73.4-61.5-146.8-92.2-220.2c-2.1-5-9-4.6-11.1,0.1c-21.5,46.2-43,92.5-64.5,138.7
		c-28.4-36.5-50.7-77.3-66.3-120.8c-2-5.6-11.1-4.3-11.5,1.6c-4.6,68.3-9.3,136.6-13.9,204.9c-0.5,7.7,11.4,9.2,11.9,1.5
		c4-59.5,8.1-119.1,12.1-178.6c16.3,38.3,38,74.2,64.3,106.5c3,3.7,8.4,2.6,10.3-1.5c21-45.1,41.9-90.1,62.9-135.2l87,207.7
		C1093.7,1254.6,1104.8,1250,1101.8,1242.9z"/>
</g>
</svg>
