<?xml version="1.0" encoding="utf-8"?>
<!-- Generator: Adobe Illustrator 27.9.1, SVG Export Plug-In . SVG Version: 6.00 Build 0)  -->
<svg version="1.1" id="Layer_2" xmlns="http://www.w3.org/2000/svg" xmlns:xlink="http://www.w3.org/1999/xlink" x="0px" y="0px"
	 width="1200px" height="1500px" viewBox="0 0 1200 1500" style="enable-background:new 0 0 1200 1500;" xml:space="preserve">
<style type="text/css">
	.st0{fill:#FFFFFF;}
</style>
<path class="st0" d="M684.8,271.6c-17.1,0-20.5,26.6-3.3,26.6C698.6,298.2,702.1,271.6,684.8,271.6z"/>
<g>
	<path class="st0" d="M965.3,545.1c-16.7,18-44.8,21.2-67.1,13.1c-24.6-9-42.8-30.5-53.7-53.7c-13.5-28.6-17.2-60.3-21-91.3
		c-1.7-14.3-4.1-29.2-12.9-41.1c-7.3-9.9-18.7-16.9-31.2-16.3c-24.2,1-36.9,27.6-43.9,47.4c-11.4,32.3-22.5,64.7-33.8,97.1
		c-4.4,12.5-8.1,25.6-15,37c-5.2,8.6-13,18.2-24.1,18.3c-23.8,0.2-27.1-34.3-27.8-51.4c-2.5-59.5,9.3-119.6,33.6-174
		c4.2-7.9,8.2-16,11.8-24.1c3.2-7.2-7.6-11.1-11.2-4.4c-4,7.6-7.8,15.4-11.4,23.3c-20.6,38.7-48.1,73.7-80.8,102.9
		c-15.4,13.7-31.9,26.3-49.4,37.3c-13.9-37.2-38-68.7-60.7-101c18.2-16.2,35-34.2,49.7-53.6c17-22.3,33-47.1,40.2-74.4
		c6.6-24.9,5.1-51.9-8.6-74.2c-12.7-20.7-35.4-31.7-59.3-31.4c-23.4,0.3-46,10.6-61.7,27.8c-17.1,18.8-25.5,44.6-26.5,69.7
		c-2.1,50,22.9,93.9,50.4,134.1c-64.1,54-146.2,86.7-229.9,90.4c-12.2,0.5-24.3,0.4-36.5-0.3c-7.7-0.5-9.2,11.5-1.5,11.9
		c51,3,102.1-4.6,150.3-21.5c45.2-15.9,87.7-39.9,124.4-70.7c2.8,3.9,5.5,7.8,8.3,11.7c18.9,26.6,39.3,56.1,51.1,87.8
		c-1.3,0.8-2.7,1.6-4,2.3c-23.1,13-48.1,23.6-66.5,43.3c-15.5,16.7-23.7,41.8-16.5,64c7.7,23.8,33.7,33.9,56.8,28
		c25-6.4,41.2-28.9,47.8-52.8c7.2-26.3,4.6-54-3.3-79.9c9.3-5.6,18.5-11.6,27.3-18.2c30.2-22.5,57.1-49.6,79.5-79.9
		c-9.8,34.3-15.1,69.8-15.5,105.5c-0.3,23.7-1.3,54.6,16.4,73.2c7.9,8.3,19.3,12.3,30.6,9.6c11.6-2.8,20.3-11.9,26.4-21.7
		c7.3-11.7,11.5-24.6,15.9-37.5c5.9-17,11.8-33.9,17.7-50.9c5.8-16.5,11.4-33.1,17.3-49.6c4-11.2,8.9-23.1,17.5-31.6
		c8.4-8.3,20-10.3,29.9-3c12.4,9.2,15.2,25.4,17,39.7c4.1,32.2,7.6,65,21.1,94.9c11.2,24.7,29.2,47.1,53.9,59.2
		c22.8,11.2,51.6,11.2,73.7-1.8c5.6-3.3,10.4-7.4,14.8-12.2C980.2,546.6,970.5,539.5,965.3,545.1z M437,317.3
		c-13.2-24.3-23.4-50.7-24.4-78.6c-1-25.2,5.8-51.5,22.3-70.9c14.7-17.4,38.2-27.1,60.9-25.1c23.9,2.1,41.9,18,49.3,40.6
		c8.7,26.5,1.1,54.6-11.2,78.6c-12.1,23.6-28.6,45.3-46.2,64.9c-8.7,9.7-17.9,18.8-27.6,27.5C451.8,342.3,443.9,330,437,317.3z
		 M524.3,548.8c-5.5,24.4-22.5,49-49.6,50c-11.5,0.4-23-4.2-29.5-14c-6.1-9-6.6-20.6-4.6-31c5-25.9,27.5-41.9,49.1-53.9
		c10.5-5.8,20.9-11.5,31.2-17.4C527.3,503.8,529.4,526,524.3,548.8z"/>
	<path class="st0" d="M997.2,862.3c-46.8,36.9-100.5,76.2-163.3,72.5c-7.7-0.5-15.3-1.6-22.6-3.5c5.3-3.1,10.5-6.7,15.3-10.6
		c22-17.9,38.7-44.6,38.5-73.7c-0.2-26.4-14-53.1-38-65.2c-23.5-11.9-51.9-4.8-71.3,11.7C735,811.2,725.2,838,730.6,865
		c5.5,27.9,24.6,52.5,49.1,66.5c0.3,0.2,0.7,0.4,1.1,0.6c-3.3,1.2-6.6,2.2-9.9,3.2c-28.7,8.3-60.3,10.7-90,8.4
		c-20.4-1.6-41-6-59.5-14.9c24.4-11.2,45.6-29,58-53.2c13.1-25.4,12.9-55.6-2.2-80.2c-14.1-22.9-40.7-35.6-67.3-29.4
		c-25,5.9-46.6,24.8-55.9,48.8c-10.4,26.8-3.5,57,11.5,80.6c7.9,12.4,17.6,22.5,28.5,30.7c-16.8,4.8-34.4,7.1-51.5,8
		c-28.1,1.4-58.2-2.1-82.7-17.1c-21.3-13.1-36.3-33.6-45-56.8c-6.5-17.3-9.3-34.9-9.4-52.5c5.7-0.5,11.4-1,17.1-1.5
		c7.7-0.7,6.1-12.6-1.6-11.9c-5.1,0.4-10.1,0.9-15.2,1.3c2.1-34.8,13.9-69.5,28.1-101.4c6.3-14.2,13.1-28.2,19.9-42.2
		c3.4-6.9-7.8-11.4-11.2-4.4c-22.7,46.7-46.6,96.9-49.1,149.2l-83.2,7.2c3.8-33.5,4.9-67.4,3-101.1c-1.1-20-3.2-39.9-6.4-59.7
		c-3.1-19.5-6.7-39.4-13.7-57.9c-7.3-19.3-19.4-37-38.3-46.3c-17.2-8.6-38.5-9.1-54.4,2.6c-6.2,4.6,1.2,14,7.4,9.5
		c12.9-9.5,30.3-7.5,43.8-0.2c15.4,8.3,24.8,24,30.7,39.9c6.5,17.6,9.8,36.5,12.7,55c3,18.7,5,37.5,6.1,56.4
		c4.5,76.1-6.3,153.2-31.1,225.3c-14,40.6-32.4,79.6-55.1,116.1c-4,6.5,5.5,13.7,9.6,7.2c42.9-69,71.1-146.7,83-227.1
		c0.4-2.6,0.8-5.3,1.1-7.9c0.8,0.3,1.7,0.4,2.7,0.3c27.3-2.4,54.5-4.7,81.8-7.1c0.1,9,1,18.1,2.6,27.2c4.8,27.3,16.3,54.3,36,74.2
		c21.8,22,51.1,32.8,81.6,35.5c30.9,2.7,63.8-0.9,93.3-11c37.4,21.5,85.6,24.5,128.3,19.6c20.6-2.3,41.6-6.8,60.7-15.2
		c24.5,9.2,51.9,9.8,77.5,4.7c33.4-6.7,63.7-22.9,91.5-42.1c13.6-9.4,26.8-19.6,39.8-29.8C1010.7,866.9,1003.3,857.5,997.2,862.3z
		 M599.9,915.6c-20.2-15.8-35.6-39.3-38.5-65.1c-2.7-24.2,7.7-47,27.1-61.5c18.1-13.5,43-17.6,62.4-4.2c20.3,14,29.2,40.5,24.9,64.3
		c-4.8,26.5-24,48.7-46.7,62.2c-6.7,4-13.8,7.4-21.1,10.2C605.3,919.6,602.6,917.7,599.9,915.6z M761.3,900.7
		C745.7,882.3,736,856,743.6,832c6.8-21.4,26.1-39.4,48.3-43.5c23.7-4.4,45.1,9.3,55,30.7c10.8,23.3,6.6,49.5-7.7,70.3
		c-11,16.1-26.4,28-43.6,36.3C782.5,920.2,770.8,911.9,761.3,900.7z"/>
	<g>
		<path class="st0" d="M1009.9,1266.9c-0.8,6.3-7.8,8.6-13.4,8.2c-7.9-0.5-13.3-7.4-16.4-14c-7.9-16.4-7.2-36.6-19.8-50.8
			c-10.6-11.9-27.1-15.3-42.3-11.6c-16.3,3.9-29.7,14.2-38.2,28.5c-6.9,11.6-10.7,24.3-13.3,37.4c-13.3-32.8-35.6-61.6-64.7-82.2
			c-2.8-2-8.2-1.3-9.2,2.6c-8.3,32.4-18.7,71.4-53.6,84.2c-14.5,5.3-30.4,3.1-41.7-7.8c-5-4.8-8.8-10.7-11.4-17.1
			c18.8-25.8,27.6-58.7,16.7-90c-1.4-4-8.1-5.2-10.4-1.3c-10.9,18.8-20.9,39.1-22.6,61.1c-0.7,9.4,0.2,18.9,2.9,28
			c-1.6,2-3.2,3.9-4.9,5.7c-25.5,27.5-63.3,37.9-99.8,38.5c-39.3,0.7-78.9-8.7-116-20.9c-36-11.9-70.8-27.9-103.3-47.5
			c-17.3-10.5-34-22-50-34.5c1.9-24.3,4.4-48.6,7.5-72.9c45.8-27.9,91.6-55.7,137.4-83.6c6.6-4-0.9-13.4-7.4-9.5l-128,77.9
			c3.2-22.6,6.9-45.2,11.1-67.6c5.9-31,12.8-61.7,20.7-92.2c1.9-7.4-9.2-11.9-11.2-4.4c-14.8,56.7-26.1,114.3-33.8,172.3
			c-18.5,11.2-36.9,22.5-55.4,33.7c-2.6,1.6-3.1,6.3-1,8.4c15,15.4,30.9,29.9,47.6,43.3c-1.9,26.6-3.1,53.3-3.5,80
			c-0.5,31.9,0.1,63.8,1.7,95.7c0.4,7.7,12.3,6.1,11.9-1.6c-2.8-55-2.3-110.2,1.3-165.2c43.4,32.9,91.9,59,143.5,76.8
			c39.2,13.5,80.9,23.8,122.5,23.8c38.9,0,79.4-9.8,108-37.6c2.1-2,4.1-4.1,6-6.2c1.9,3.6,4.1,7,6.7,10.2
			c11.5,14.2,29.2,21.5,47.4,18.7c18.3-2.8,34.8-14.2,45.8-28.8c12.7-16.8,19-37.1,24.3-57.3c29.7,23.5,51.6,56.5,60.9,93.4
			c1.6,6.3,10.9,7.2,11.9-0.1c4.3-32.2,12.1-77.5,52.2-81.3c6.9-0.6,14.2,0.6,20,4.7c7.6,5.3,11.1,14.2,13.6,22.8
			c4.8,16.5,7.3,36.3,23.2,46.2c13.6,8.5,36.2,3,38.4-14.8C1022.8,1260.7,1010.8,1259.2,1009.9,1266.9z M252.7,1143l40.2-24.4
			c-2.3,18.6-4.2,37.2-5.7,55.8C275.1,1164.4,263.6,1154,252.7,1143z M681.2,1220.8c0.1-16.8,6-32.8,13.6-47.8
			c2.5,19.4-3,38.9-13.1,55.8C681.3,1226.2,681.2,1223.5,681.2,1220.8z"/>
		<path class="st0" d="M709.5,1083.4c-16.2,0-19.5,25.3-3.1,25.3C722.6,1108.7,725.9,1083.4,709.5,1083.4z"/>
	</g>
</g>
</svg>
