<?xml version="1.0" encoding="utf-8"?>
<!-- Generator: Adobe Illustrator 27.9.1, SVG Export Plug-In . SVG Version: 6.00 Build 0)  -->
<svg version="1.1" id="Layer_1" xmlns="http://www.w3.org/2000/svg" xmlns:xlink="http://www.w3.org/1999/xlink" x="0px" y="0px"
	 width="300px" height="40px" viewBox="0 0 300 40" style="enable-background:new 0 0 300 40;" xml:space="preserve">
<style type="text/css">
	.st0{fill:#333333;}
</style>
<g>
	<path class="st0" d="M23.1,2v24.8c0,6.8-4.6,10.9-11.3,10.9c-6.2,0-10.9-3.4-10.9-9.8h6.3c0,2.9,1.9,4.6,4.8,4.6
		c3.1,0,4.8-2,4.8-5.7V2H23.1z"/>
	<path class="st0" d="M39.7,37.2h-6.3V2h6.3V37.2z"/>
	<path class="st0" d="M78.9,37.2h-5.6L56.6,13.1h-0.3v24.1H50V2h5.7l16.6,24.1h0.3V2h6.3V37.2z"/>
	<path class="st0" d="M89.2,2h6.3v14.9h16.4V2h6.4v35.2h-6.4v-15H95.5v15h-6.3V2z"/>
	<path class="st0" d="M128.5,2h22.9v5.3h-16.6v9.6h15.4v5.3h-15.4v9.6h16.7v5.4h-23V2z"/>
	<path class="st0" d="M161.2,2h22.9v5.3h-16.6v9.6h15.4v5.3h-15.4v9.6h16.7v5.4h-23V2z"/>
	<path class="st0" d="M209.5,2h6.3v16.2h0.5L230.1,2h7.7l-13.6,15.8L238,37.2h-7.6l-10.6-15.1l-3.9,4.6v10.5h-6.3V2z"/>
	<path class="st0" d="M251.9,37.2h-6.3V2h6.3V37.2z"/>
	<path class="st0" d="M270,2l10.5,25.6h0.4L291.3,2h7.8v35.2H293V13h-0.3l-9.8,24.1h-4.5l-9.8-24.2h-0.3v24.3h-6.1V2H270z"/>
</g>
</svg>
