<?xml version="1.0" encoding="utf-8"?>
<!-- Generator: Adobe Illustrator 27.9.1, SVG Export Plug-In . SVG Version: 6.00 Build 0)  -->
<svg version="1.1" id="Layer_1" xmlns="http://www.w3.org/2000/svg" xmlns:xlink="http://www.w3.org/1999/xlink" x="0px" y="0px"
	 width="1909px" height="260px" viewBox="0 0 1909 260" style="enable-background:new 0 0 1909 260;" xml:space="preserve">
<style type="text/css">
	.st0{fill:#8BB6E8;}
	.st1{fill:#F8F6F4;}
</style>
<path class="st0" d="M30.1,253.5V27.2h88.7c51.6,0,80.9,31.6,80.9,76.2c0,45.3-30,76.2-82.2,76.2H76.9v73.8H30.1z M76.9,141.9h33.1
	c27.8,0,41.2-15.6,41.2-38.4c0-22.5-13.4-37.8-41.2-37.8H76.9V141.9z M452.6,140.4c0,73.8-45.9,116.2-105.6,116.2
	c-60.3,0-105.9-42.8-105.9-116.2c0-73.8,45.6-116.2,105.9-116.2C406.7,24.1,452.6,66.6,452.6,140.4z M404.8,140.4
	c0-48.4-22.8-74.7-57.8-74.7s-58.1,26.2-58.1,74.7s23.1,74.7,58.1,74.7S404.8,188.8,404.8,140.4z M502.4,253.5V27.2h88.8
	c51.6,0,80.9,29.1,80.9,73.8c0,30.9-14.2,53.4-40,64.4l48.1,88.1h-51.9l-43.1-80.3h-35.9v80.3H502.4z M549.2,135.1h33.1
	c27.8,0,41.2-11.6,41.2-34.1c0-22.8-13.4-35.3-41.2-35.3h-33.1V135.1z M711.8,66V27.2h185.3V66h-69.4v187.5h-46.6V66H711.8z
	 M942.2,253.5V27.2h149.1V66H989.1v55h92.5v38.8h-92.5v93.8H942.2z M1345.4,140.4c0,73.8-45.9,116.2-105.6,116.2
	c-60.3,0-105.9-42.8-105.9-116.2c0-73.8,45.6-116.2,105.9-116.2C1299.4,24.1,1345.4,66.6,1345.4,140.4z M1297.6,140.4
	c0-48.4-22.8-74.7-57.8-74.7s-58.1,26.2-58.1,74.7s23.1,74.7,58.1,74.7S1297.6,188.8,1297.6,140.4z M1395.1,253.5V27.2h46.9v187.5
	h97.5v38.8H1395.1z M1632.7,27.2v226.2h-46.9V27.2H1632.7z M1894,140.4c0,73.8-45.9,116.2-105.6,116.2
	c-60.3,0-105.9-42.8-105.9-116.2c0-73.8,45.6-116.2,105.9-116.2C1848.1,24.1,1894,66.6,1894,140.4z M1846.2,140.4
	c0-48.4-22.8-74.7-57.8-74.7s-58.1,26.2-58.1,74.7s23.1,74.7,58.1,74.7S1846.2,188.8,1846.2,140.4z"/>
<path class="st1" d="M19.1,234.5V8.2h88.7c51.6,0,80.9,31.6,80.9,76.2c0,45.3-30,76.2-82.2,76.2H65.9v73.8H19.1z M65.9,122.9h33.1
	c27.8,0,41.2-15.6,41.2-38.4c0-22.5-13.4-37.8-41.2-37.8H65.9V122.9z M441.6,121.4c0,73.8-45.9,116.2-105.6,116.2
	c-60.3,0-105.9-42.8-105.9-116.2C230.1,47.6,275.7,5.1,336,5.1C395.7,5.1,441.6,47.6,441.6,121.4z M393.8,121.4
	c0-48.4-22.8-74.7-57.8-74.7s-58.1,26.2-58.1,74.7s23.1,74.7,58.1,74.7S393.8,169.8,393.8,121.4z M491.4,234.5V8.2h88.8
	c51.6,0,80.9,29.1,80.9,73.8c0,30.9-14.2,53.4-40,64.4l48.1,88.1h-51.9l-43.1-80.3h-35.9v80.3H491.4z M538.2,116.1h33.1
	c27.8,0,41.2-11.6,41.2-34.1c0-22.8-13.4-35.3-41.2-35.3h-33.1V116.1z M700.8,47V8.2h185.3V47h-69.4v187.5h-46.6V47H700.8z
	 M931.2,234.5V8.2h149.1V47H978.1v55h92.5v38.8h-92.5v93.8H931.2z M1334.4,121.4c0,73.8-45.9,116.2-105.6,116.2
	c-60.3,0-105.9-42.8-105.9-116.2c0-73.8,45.6-116.2,105.9-116.2C1288.4,5.1,1334.4,47.6,1334.4,121.4z M1286.6,121.4
	c0-48.4-22.8-74.7-57.8-74.7s-58.1,26.2-58.1,74.7s23.1,74.7,58.1,74.7S1286.6,169.8,1286.6,121.4z M1384.1,234.5V8.2h46.9v187.5
	h97.5v38.8H1384.1z M1621.7,8.2v226.2h-46.9V8.2H1621.7z M1883,121.4c0,73.8-45.9,116.2-105.6,116.2c-60.3,0-105.9-42.8-105.9-116.2
	c0-73.8,45.6-116.2,105.9-116.2C1837.1,5.1,1883,47.6,1883,121.4z M1835.2,121.4c0-48.4-22.8-74.7-57.8-74.7s-58.1,26.2-58.1,74.7
	s23.1,74.7,58.1,74.7S1835.2,169.8,1835.2,121.4z"/>
</svg>
