<?xml version="1.0" encoding="utf-8"?>
<!-- Generator: Adobe Illustrator 27.9.1, SVG Export Plug-In . SVG Version: 6.00 Build 0)  -->
<svg version="1.1" id="Layer_1" xmlns="http://www.w3.org/2000/svg" xmlns:xlink="http://www.w3.org/1999/xlink" x="0px" y="0px"
	 width="200px" height="220px" viewBox="0 0 200 220" style="enable-background:new 0 0 200 220;" xml:space="preserve">
<style type="text/css">
	.st0{fill:#FFE5D2;}
	.st1{fill:#FFFFFF;}
	.st2{fill:#495F91;}
	.st3{fill:#DCE1EA;}
	.st4{fill:#FFD9C0;}
	.st5{fill:#3A507C;}
	.st6{fill:#96505A;}
	.st7{fill:#873D4B;}
	.st8{fill:#515151;}
	.st9{fill:#333333;}
	.st10{fill:#FFD4D4;}
	.st11{fill:#F4E7B9;}
</style>
<g>
	<path class="st0" d="M46.5,164.1c0,0,2.2-10.3-1.9-19.7c-2.5-5.6-3.9-5.5-4.7-4.5c-0.6,0.8-0.7,1.8-0.4,2.7
		c0.8,2.2,2.3,7.3,0.9,8.6c-1.7,1.6-6.6-9.8-11.9-20.1c-0.4-0.7-1.2-1.2-2-1.1c-0.9,0.1-1.5,0.9-0.3,3.8c2.3,5.3,4.5,12.1,4.5,12.1
		s0.8,3.7-1.4,1.5c-1.9-1.9-8.5-13.9-10.3-17.1c-0.4-0.7-1-1.2-1.8-1.4c-0.9-0.2-1.7,0.1-1.2,2.4c0.9,4,8.9,19.1,8.9,19.1
		s-0.4,1.3-1.5,0.6c-1-0.8-10.8-13.5-11.8-13.7c-1-0.1-2.4-0.1-0.8,3.3c1.7,3.4,9.5,13.9,9.5,13.9s0.3,1.9-1.8,1.3l-9.4-7.2
		c0,0-3.6-1-0.9,2.7c2.1,2.9,6.1,6.6,7.6,8c0.4,0.4,0.8,0.8,1.1,1.3c1.7,2.5,7.8,10.9,11,14C32.1,178.2,46.5,164.1,46.5,164.1z"/>
	<path class="st1" d="M167.9,219.3H96.7c0,0.2,0,0.4,0,0.7c-0.6-0.2-1.2-0.4-1.7-0.7h-9l0.3-6.7v0l0.2-3.8l0.5-11.3l24.6-59.2
		l4.7-1.8l5.3-2l26.5,2.2l2.2,0.2c0,0,13.6,13.2,14,17.3C164.6,157,166.7,195,167.9,219.3z"/>
	<path class="st2" d="M150.8,27.6c0,0-6-7.2,3.5-11c0,0,3.5-5.7,11.9-3.6c8.5,2.1,11,9.7,8.9,13.8c0,0,7.5,4.4-1.2,13.7
		C165.2,49.8,150.8,27.6,150.8,27.6z"/>
	<path class="st3" d="M116.6,135.8l-8,3.8c0,0,9.9,21.3,51.4,0.6l-6.9-5.3L116.6,135.8z"/>
	<path class="st3" d="M151,161.7c-43.8,15.3-50.9-7.1-50.9-7.1l8.4-2.8c0,0,5.2,10.9,36.3,3.7L151,161.7z"/>
	<path class="st3" d="M145.6,179.6c-43.8,15.3-50.9-7.1-50.9-7.1l8.4-2.8c0,0,5.2,10.9,36.3,3.7L145.6,179.6z"/>
	<path class="st3" d="M139.5,198.1c-43.8,15.3-50.9-7.1-50.9-7.1l8.4-2.8c0,0,5.2,10.9,36.3,3.7L139.5,198.1z"/>
	<path class="st3" d="M135.5,216.5c-3.3,1.2-6.4,2.1-9.4,2.9H96.7c0,0.2,0,0.4,0,0.7c-0.6-0.2-1.2-0.4-1.7-0.7
		c-4.5-1.9-7.2-4.6-8.7-6.7v0c-1.3-1.8-1.7-3.2-1.7-3.2l1.9-0.6l6.5-2.1c0,0,0.9,2,4.4,3.7c2.9,1.4,7.5,2.7,14.7,2.5
		c4.6-0.1,10.2-0.8,17.2-2.5L135.5,216.5z"/>
	<path class="st2" d="M144.1,119.3c6,0.7,10.6-0.5,16.3-2.2c7.9-2.3,14.6-7.8,19.1-14.6S188,89,189,81c1.1-8.7,0.6-17.8-3-25.8
		c-4.1-9.4-12-18.3-21-23.5c-11.9-6.9-26-8.7-39.7-7.2c-30.7,3.3-48,29.1-40.9,54.2c4.9,17.4,12.2,21.7,22.6,28.4s22.7,10.4,35,12.1
		C142.7,119.2,143.4,119.2,144.1,119.3z"/>
	<g>
		<path class="st0" d="M150.4,136.9c-10,6.5-35.6,7-33.9-1.1c0.5-2.3,0.8-4.3,0.9-6.1c0.4-4.7-0.1-7.5-0.1-7.5s18.7-20.4,26-21.9
			c1.6-0.3,2.7,0.2,2.8,2.2c0,0.2,0,0.4,0.1,0.6c0.4,4.3,1.2,10.6,1.9,16.6C149.3,128.6,150.4,136.9,150.4,136.9z"/>
		<path class="st4" d="M148.1,119.6c-4.9,4.3-13.5,8.4-20.4,10.5c-5.1,1.5-8.3,0.7-10.3-0.4c0.4-4.7-0.1-7.5-0.1-7.5
			s18.7-20.4,26-21.9c0.7,0.6,1.8,1.6,2.9,2.8C146.6,107.3,147.4,113.6,148.1,119.6z"/>
	</g>
	<path class="st0" d="M166.2,104.6c-4,2.8-10.3,2.2-13.2-1.7c-1,1.2-1.9,2.3-2.9,3.5c-4.4,5.2-9,10.3-14.8,14
		c-1.2,0.8-2.6,1.6-3.9,2.2c-6.2,3.1-13.4,4.4-20,2.3c-5-1.6-9.2-5-12.3-9.2c-1.6-2.1-2.8-4.4-3.8-6.8c-1.4-3.4-2.3-6.9-2.9-10.5
		c-0.7-4-1-8.2-1.2-12.3C91,80.5,90.9,74.8,91,69.1c0-2.3,0.6-4.3,1.4-6.1c5.2-10.6,23.3-12.8,33.9-10.7c10.7,2.1,20.4,7.9,29,14.6
		c0.7,0.6,1.5,1.2,1.8,2c0.5,1,0.3,2.1,0.2,3.2c-0.6,4.4-1.1,8.8-1.7,13.2c2.6-1.3,5.5-2.3,8.3-1.7c3.7,0.9,6.2,4.4,6.9,8.1
		C171.9,96.5,170.2,101.9,166.2,104.6z"/>
	<path class="st5" d="M105.8,48.5c0,1.2,0.5,2.4,1.1,3.9c4.3,10.4,14.1,17.4,23.7,23.4c9.6,6,19.9,11.9,26.1,21.3
		c2.2-1.8,3.8-4.4,4.9-7c5.6-12.9,2.9-29-6.7-39.3c-9.6-10.4-25.6-14.5-39.1-10.2c-2.8,0.9-5.6,2.2-7.9,4.1
		C106.4,45.9,105.8,47.1,105.8,48.5z"/>
	<path class="st2" d="M104,50.2c-0.2,1.3,0.2,2.9,1.4,5.1c4.8,8.4,11.5,15.8,19.4,21.5c5.4,3.8,11.4,6.9,17,10.5s10.8,8.1,14,13.9
		c3-2.5,4.8-6.1,6-9.9c4.6-14.8-1.1-32.1-13.7-41.4c-7.2-5.3-16.4-7.8-25.4-7.4c-4.5,0.2-8.9,1.2-13.1,2.9
		C106.4,46.9,104.3,48.2,104,50.2z"/>
	<path class="st2" d="M148.1,119.6c0,0,6.3,5.9,8.4,13.9C156.6,133.5,158.2,124.3,148.1,119.6z"/>
	<path class="st2" d="M148.1,119.6c0,0,4.1,8.1,4.1,13.4C152.2,133,153.3,126.6,148.1,119.6z"/>
	<path class="st6" d="M187.5,219.3H111c0.3-2.2,0.7-4.4,1.1-6.5c7.9-43.3,27.6-67.4,36.1-76.1c2.5-2.5,4-3.7,4-3.7l14.4,5
		c8,2.7,14.1,9.1,16.3,17.1C188.5,175.1,188,205.6,187.5,219.3z"/>
	<path class="st6" d="M116.5,135.7L116.5,135.7z"/>
	<path class="st6" d="M116.6,135.8c-0.1,0.2-0.2,0.5-0.2,0.7c-8.1,24.1-16.2,48.7-18.9,73.8c-0.3,3-0.6,6-0.7,9c0,0.2,0,0.4,0,0.7
		c-0.6-0.2-1.2-0.4-1.7-0.7H49.9c-2.4-3.1-4.4-6.7-6.2-10.2c-6.4-12.6-16.1-24.3-21.1-37.6c-0.4-1.1-0.4-2.8,0.5-3.7
		c2.8-2.9,9.8-7.3,10.9-7.9c3.5-2,7.2-3.6,11-4.9c1.8-0.6,3.9-0.1,5.1,1.4c8.9,10.5,16.3,20.7,23.8,31.7c6.4-10.2,7.6-16,11.8-27.2
		c1.5-4,2.9-8.1,5.4-11.6C96.8,141.4,107.1,138.4,116.6,135.8z"/>
	<path class="st7" d="M84.7,187.2c0,0-4,23.7-4.5,32.1h-2C78.9,213.5,81,197.3,84.7,187.2z"/>
	<path class="st7" d="M151.7,219.3h-2.6c0.6-8.5,3-18.7,3-18.7C151.7,209.3,151.7,215.4,151.7,219.3z"/>
	<path class="st8" d="M113.2,136.8L113.2,136.8z"/>
	<path class="st9" d="M97.5,85.6c0.4-0.9,1.1-1.6,2.1-1.1c0.5,0.3,0.8,0.7,1.1,1.2c0.3,0.6,0.5,1.3,0.4,2c-0.1,0.7-0.4,1.4-0.9,1.8
		c-0.5,0.4-1.3,0.6-2,0.3c-0.8-0.4-1.1-1.3-1.2-2.2C97,87.1,97.2,86.3,97.5,85.6z"/>
	<path class="st9" d="M128.2,87.2c0.4-0.9,1.1-1.6,2.1-1.1c0.5,0.3,0.8,0.7,1.1,1.2c0.3,0.6,0.5,1.3,0.4,2c-0.1,0.7-0.4,1.4-0.9,1.8
		c-0.5,0.4-1.3,0.6-2,0.3c-0.8-0.4-1.1-1.3-1.2-2.2C127.8,88.6,127.9,87.8,128.2,87.2z"/>
	<path class="st9" d="M94.5,78.9c0,0,3.6-2.9,8.3,0.2C102.8,79.1,97.6,74.5,94.5,78.9z"/>
	<path class="st9" d="M124.7,80c0,0,6.2-2.4,12.6,1.4C137.3,81.4,130.7,75.5,124.7,80z"/>
	<path class="st9" d="M108.8,95.2c0,0,0.4,1.2-1,3c-1.4,1.8,1.1,3,1.1,3s-1.7-1.6,0-3.9c0-0.1,0.1-0.1,0.1-0.2
		C109,96.8,109.1,96.1,108.8,95.2z"/>
	<path class="st9" d="M103.7,106.6c0,0,6.8,7.4,18.9,1.3C122.5,107.9,111,115.6,103.7,106.6z"/>
	<path class="st10" d="M101.4,109.2c0,2.5-0.8,4.7-2.2,6.6c-1.6-2.1-2.8-4.4-3.8-6.8c-1.4-3.4-2.3-6.9-2.9-10.5
		C97.6,99.4,101.4,103.8,101.4,109.2z"/>
	<path class="st10" d="M150.1,106.4c-4.4,5.2-9,10.3-14.8,14c-1.2,0.8-2.6,1.6-3.9,2.2c-3.3-2.3-5.4-6-5.4-10.3
		c0-7,5.7-12.6,12.8-12.6C143.8,99.8,148,102.5,150.1,106.4z"/>
	<path class="st7" d="M172.5,151.6c0,0-16.6,4.8-20,37.6C152.4,189.1,154,151.2,172.5,151.6z"/>
	<path class="st11" d="M96.7,219.3c0,0.2,0,0.4,0,0.7c-0.6-0.2-1.2-0.4-1.7-0.7H96.7z"/>
</g>
</svg>
